<svg xmlns="http://www.w3.org/2000/svg" viewBox="0 0 64 64" role="img" aria-labelledby="title desc">
  <title id="title">Laboratorio Virtual de Fisica</title>
  <desc id="desc">Favicon con un resorte y una trayectoria parabolica para una plataforma de simuladores de Fisica.</desc>
  <defs>
    <linearGradient id="bg" x1="8" y1="8" x2="56" y2="56" gradientUnits="userSpaceOnUse">
      <stop offset="0" stop-color="#1455d9"/>
      <stop offset="1" stop-color="#0f8b8d"/>
    </linearGradient>
    <linearGradient id="trail" x1="12" y1="40" x2="52" y2="22" gradientUnits="userSpaceOnUse">
      <stop offset="0" stop-color="#f59e0b"/>
      <stop offset="1" stop-color="#ffd166"/>
    </linearGradient>
  </defs>
  <rect x="4" y="4" width="56" height="56" rx="14" fill="url(#bg)"/>
  <path d="M14 45c7-12 15-19 24-19 4 0 8 1 12 3" fill="none" stroke="url(#trail)" stroke-linecap="round" stroke-width="4"/>
  <circle cx="49" cy="30" r="3.5" fill="#f8fafc"/>
  <path d="M22 15v8l-4 2.5 8 5-8 5 8 5-8 5 8 5 8-5-8-5 8-5-8-5 8-5-4-2.5v-8" fill="none" stroke="#f8fafc" stroke-linecap="round" stroke-linejoin="round" stroke-width="3"/>
  <rect x="28.5" y="47.5" width="7" height="5" rx="1.5" fill="#f8fafc"/>
</svg>
